<svg xmlns="http://www.w3.org/2000/svg" width="256" height="256" viewBox="0 0 256 256" fill="none">
  <defs>
    <linearGradient id="blade" x1="94" y1="40" x2="162" y2="174" gradientUnits="userSpaceOnUse">
      <stop stop-color="#ffffff"/>
      <stop offset="0.34" stop-color="#e5edf5"/>
      <stop offset="0.68" stop-color="#aebdca"/>
      <stop offset="1" stop-color="#7e8d9a"/>
    </linearGradient>
    <linearGradient id="bladeSide" x1="118" y1="52" x2="147" y2="170" gradientUnits="userSpaceOnUse">
      <stop stop-color="#d3dee8"/>
      <stop offset="1" stop-color="#748493"/>
    </linearGradient>
    <linearGradient id="gold" x1="78" y1="158" x2="178" y2="238" gradientUnits="userSpaceOnUse">
      <stop stop-color="#fff1b7"/>
      <stop offset="0.42" stop-color="#f2c14e"/>
      <stop offset="1" stop-color="#a86f1d"/>
    </linearGradient>
    <linearGradient id="grip" x1="112" y1="190" x2="144" y2="236" gradientUnits="userSpaceOnUse">
      <stop stop-color="#695139"/>
      <stop offset="1" stop-color="#2f2419"/>
    </linearGradient>
    <filter id="softShadow" x="50" y="24" width="156" height="232" color-interpolation-filters="sRGB" filterUnits="userSpaceOnUse">
      <feDropShadow dx="0" dy="5" stdDeviation="4" flood-color="#000000" flood-opacity="0.35"/>
    </filter>
  </defs>
  <g filter="url(#softShadow)">
    <path d="M128 22 L154 58 L145 166 L111 166 L102 58 Z" fill="url(#blade)" stroke="#17212c" stroke-width="5" stroke-linejoin="round"/>
    <path d="M128 22 L128 166" stroke="#eef6ff" stroke-width="5" stroke-linecap="round" opacity="0.8"/>
    <path d="M128 31 L145 62 L138 160 H128 Z" fill="url(#bladeSide)" opacity="0.55"/>
    <path d="M116 62 L111 150" stroke="#ffffff" stroke-width="4" stroke-linecap="round" opacity="0.45"/>
    <path d="M78 160 L108 154 H148 L178 160 L168 184 H88 Z" fill="url(#gold)" stroke="#5c4215" stroke-width="5" stroke-linejoin="round"/>
    <path d="M91 169 H165" stroke="#ffe89a" stroke-width="4" stroke-linecap="round" opacity="0.75"/>
    <rect x="113" y="180" width="30" height="52" rx="8" fill="url(#grip)" stroke="#1d160f" stroke-width="5"/>
    <path d="M118 190 H138 M118 202 H138 M118 214 H138 M118 226 H138" stroke="#c79538" stroke-width="4" stroke-linecap="round" opacity="0.85"/>
    <circle cx="128" cy="238" r="16" fill="url(#gold)" stroke="#5c4215" stroke-width="5"/>
    <circle cx="123" cy="233" r="5" fill="#fff4c7" opacity="0.8"/>
  </g>
</svg>
